<?xml version="1.0" encoding="iso-8859-1"?>
<!-- Generator: Adobe Illustrator 19.0.0, SVG Export Plug-In . SVG Version: 6.00 Build 0)  -->
<svg version="1.1" id="Layer_1" xmlns="http://www.w3.org/2000/svg" xmlns:xlink="http://www.w3.org/1999/xlink" x="0px" y="0px"
	 viewBox="0 0 306.174 306.174" style="enable-background:new 0 0 306.174 306.174;" xml:space="preserve">
<g>
	<path style="fill:#FFDB77;" d="M291.56,197.735c-6.01-12.79-19.06-21.65-33.9-21.7c-20.77-0.06-37.63,16.76-37.63,37.52
		c0-20.77-16.865-37.574-37.63-37.52c-32.776,0.1-49.751,39.673-27.01,63.44l-0.01,0.01l34.2,35.54l13.97,14.53
		c-64.552,23.91-138.97-0.655-175.6-62.1c-12.99-21.77-20.45-47.23-20.45-74.42c0-80.354,65.15-145.53,145.53-145.53
		C251.884,7.505,321.799,104.092,291.56,197.735z"/>
	<path style="fill:#FFDB77;" d="M291.56,197.735c-6.01-12.79-19.06-21.65-33.9-21.7c-20.77-0.06-37.63,16.76-37.63,37.52
		c0-20.77-16.865-37.574-37.63-37.52c-32.776,0.1-49.751,39.673-27.01,63.44l-0.01,0.01l34.2,35.54l13.97,14.53
		c-64.552,23.91-138.97-0.655-175.6-62.1c-12.99-21.77-20.45-47.23-20.45-74.42c0-80.354,65.15-145.53,145.53-145.53
		C251.884,7.505,321.799,104.092,291.56,197.735z"/>
	<g>
		<path style="fill:#FF7876;" d="M284.67,239.475l0.01,0.01l-51.43,53.45c-7.21,7.5-19.23,7.5-26.44,0l-3.26-3.38l-13.97-14.53
			l-34.2-35.54l0.01-0.01c-22.832-23.862-5.625-63.34,27.01-63.44c20.764-0.054,37.63,16.748,37.63,37.52
			c0-20.76,16.86-37.58,37.63-37.52c14.84,0.05,27.89,8.91,33.9,21.7C297.908,211.282,295.681,227.972,284.67,239.475z"/>
		<path style="fill:#414042;" d="M153.03,0.005C68.341,0.005,0,68.728,0,153.035C0,257.263,102.632,331.234,201.491,298.22
			c10.182,10.492,27.019,10.466,37.163-0.085c0.281-0.292,51.523-53.532,51.783-53.843c11.761-12.573,15.255-31.03,9.1-46.946
			C329.223,99.208,255.59,0.005,153.03,0.005z M226.3,181.164c0.598-6.787,0.975-13.675,1.134-20.629h63.42
			c-0.365,6.815-1.222,13.564-2.575,20.204C270.721,164.344,243.609,164.45,226.3,181.164z M138.272,205.193
			c-13.697,0.284-27.031,0.966-39.798,2.034c-2.84-14.865-4.468-30.512-4.851-46.692h118.809c-0.149,6.244-0.477,12.432-0.997,18.53
			C184.955,156.89,144.553,171.692,138.272,205.193z M179.713,275.592c-32.489,39.121-64.648-2-77.947-53.578
			c11.649-0.932,23.771-1.542,36.221-1.811c1.366,9.32,5.588,17.63,11.635,24.089C149.883,244.604,179.431,275.299,179.713,275.592z
			 M31.469,218.431c-9.602-17.815-15.148-37.594-16.247-57.896h63.402c0.376,16.644,2.004,32.783,4.862,48.163
			C62.783,211.031,45.05,214.347,31.469,218.431z M31.468,87.64c13.782,4.151,31.613,7.463,52.014,9.754
			c-2.856,15.375-4.483,31.506-4.859,48.142H15.222C16.321,125.234,21.866,105.456,31.468,87.64z M153.03,15.005
			c20.417,0,40.52,27.398,51.259,69.034c-33.121,2.655-69.382,2.656-102.519,0C112.509,42.404,132.613,15.005,153.03,15.005z
			 M207.587,98.851c2.839,14.862,4.467,30.507,4.849,46.684H93.623c0.383-16.176,2.01-31.821,4.849-46.684
			C132.471,101.685,171.83,101.832,207.587,98.851z M274.591,87.639c9.602,17.815,15.147,37.594,16.247,57.896h-63.402
			c-0.376-16.636-2.003-32.768-4.859-48.142C242.978,95.102,260.809,91.791,274.591,87.639z M266.442,74.368
			c-12.656,3.451-28.791,6.257-47.047,8.249c-6.58-26.735-16.581-48.086-28.727-62.381C222.134,29.129,248.542,48.62,266.442,74.368
			z M115.392,20.237c-12.146,14.295-22.148,35.646-28.727,62.381c-18.256-1.993-34.392-4.798-47.048-8.25
			C57.491,48.657,83.881,29.142,115.392,20.237z M39.62,231.705c12.51-3.4,28.712-6.251,47.041-8.267
			c6.58,26.742,16.582,48.098,28.731,62.395C83.929,276.942,57.522,257.454,39.62,231.705z M279.252,234.289
			c-8.503,8.866,16.887-17.53-51.409,53.448c-4.252,4.422-11.347,4.452-15.635-0.009c-2.653-2.758-48.443-50.341-51.399-53.439
			c-18.103-18.921-4.808-50.755,21.69-50.755c16.469,0,30.031,13.325,30.031,30.02c0,4.142,3.358,7.5,7.5,7.5s7.5-3.358,7.5-7.5
			c0-16.591,13.426-30.02,30.016-30.02c0.029,0,0.06,0,0.089,0C283.769,183.622,297.514,215.212,279.252,234.289z"/>
	</g>
</g>
<g>
</g>
<g>
</g>
<g>
</g>
<g>
</g>
<g>
</g>
<g>
</g>
<g>
</g>
<g>
</g>
<g>
</g>
<g>
</g>
<g>
</g>
<g>
</g>
<g>
</g>
<g>
</g>
<g>
</g>
</svg>
